<?xml version="1.0" standalone="no"?>
<!DOCTYPE svg PUBLIC "-//W3C//DTD SVG 20010904//EN"
 "http://www.w3.org/TR/2001/REC-SVG-20010904/DTD/svg10.dtd">
<svg version="1.0" xmlns="http://www.w3.org/2000/svg"
 width="192.000000pt" height="192.000000pt" viewBox="0 0 192.000000 192.000000"
 preserveAspectRatio="xMidYMid meet">
<metadata>
Created by potrace 1.14, written by Peter Selinger 2001-2017
</metadata>
<g transform="translate(0.000000,192.000000) scale(0.100000,-0.100000)"
fill="#000000" stroke="none">
<path d="M30 960 l0 -930 930 0 930 0 0 930 0 930 -930 0 -930 0 0 -930z
m1596 354 c30 -20 54 -39 54 -43 0 -4 -33 -23 -74 -43 -62 -31 -79 -35 -109
-29 -32 8 -52 -1 -264 -116 -125 -68 -275 -149 -333 -180 -58 -31 -109 -58
-114 -61 -4 -2 -2 -8 5 -13 11 -7 9 -9 -6 -9 -12 0 -25 4 -31 10 -5 5 -48 10
-95 11 -105 2 -125 10 -78 34 19 10 41 23 49 31 8 7 107 55 220 107 113 52
253 119 311 148 290 147 368 184 402 188 5 1 33 -15 63 -35z m-99 -468 c15
-13 37 -25 48 -27 31 -6 31 -47 0 -79 -24 -26 -33 -27 -153 -35 -70 -5 -152
-9 -182 -11 -30 -1 -93 -4 -140 -8 -54 -3 -76 -2 -60 3 l25 9 -27 1 c-14 1
-28 -4 -30 -10 -3 -8 -87 -15 -253 -22 -378 -16 -355 -18 -463 33 -79 36 -90
45 -75 54 10 5 36 10 58 11 22 1 72 14 110 30 56 23 89 29 168 33 61 3 97 1
97 -6 0 -14 736 -16 745 -2 7 11 0 12 -142 13 -57 0 -103 4 -103 9 0 4 53 9
118 9 64 1 131 5 147 9 55 14 83 10 112 -14z m-680 -22 c-3 -3 -12 -4 -19 -1
-8 3 -5 6 6 6 11 1 17 -2 13 -5z"/>
</g>
</svg>
