<svg aria-hidden="true" width="30" height="30" xmlns="http://www.w3.org/2000/svg" overflow="hidden"><defs><symbol id="youtube" viewBox="0 0 30 30"><path d="M23.658 22.383h-1.545l.007-.904c0-.402.327-.73.728-.73h.098c.401 0 .73.328.73.73l-.018.904Zm-5.794-1.937c-.392 0-.713.265-.713.59v4.397c0 .325.32.59.713.59.393 0 .714-.265.714-.59v-4.397c0-.325-.32-.59-.714-.59Zm9.409-2.46v8.366c0 2.006-1.727 3.648-3.837 3.648H7.656c-2.112 0-3.838-1.642-3.838-3.648v-8.366c0-2.007 1.726-3.649 3.838-3.649h15.78c2.11 0 3.837 1.643 3.837 3.65ZM8.708 27.26v-8.812h1.955v-1.305l-5.214-.008v1.284l1.628.004v8.837h1.631Zm5.864-7.5h-1.63v4.706c0 .68.04 1.021-.003 1.141-.133.365-.729.752-.961.04-.04-.125-.005-.502-.006-1.149l-.006-4.738h-1.622l.005 4.664c.001.715-.016 1.248.006 1.49.04.428.025.927.419 1.211.734.533 2.14-.08 2.492-.84l-.003.971 1.31.002V19.76h-.001Zm5.217 5.389-.003-3.916c-.002-1.493-1.11-2.387-2.614-1.18l.007-2.911-1.63.002-.007 10.05 1.34-.02.121-.625c1.713 1.583 2.789.498 2.786-1.4Zm5.104-.52-1.223.007-.003.167v.688a.67.67 0 0 1-.668.667h-.24a.67.67 0 0 1-.668-.667v-1.809h2.8V22.62c0-.776-.02-1.552-.083-1.996-.2-1.403-2.156-1.626-3.143-.908-.31.225-.547.525-.685.929-.14.403-.208.955-.208 1.655v2.335c0 3.882 4.68 3.334 4.121-.005Zm-6.272-12.677c.084.206.214.373.392.5.175.123.4.186.667.186.235 0 .444-.064.625-.196.18-.132.333-.328.457-.59l-.03.645h1.817V4.706h-1.43v6.064a.599.599 0 0 1-.597.597.599.599 0 0 1-.595-.598V4.707h-1.494V9.96c0 .67.012 1.115.032 1.342.02.224.071.44.156.649Zm-5.51-4.4c0-.748.063-1.332.185-1.753.124-.42.347-.757.669-1.011.32-.256.732-.384 1.232-.384.42 0 .781.084 1.082.246.303.164.536.377.698.64.164.263.276.534.336.81.061.282.091.705.091 1.277v1.97c0 .723-.029 1.254-.084 1.592a2.538 2.538 0 0 1-.358.946 1.707 1.707 0 0 1-.7.648c-.287.14-.616.21-.987.21-.414 0-.763-.058-1.05-.179-.29-.12-.512-.3-.671-.54a2.407 2.407 0 0 1-.342-.873c-.068-.341-.1-.854-.1-1.537V7.552Zm1.424 3.095c0 .44.326.801.723.801.397 0 .722-.36.722-.802V6.5c0-.44-.325-.8-.722-.8-.397 0-.723.36-.723.8v4.147Zm-5.03 2.094h1.714l.002-5.976 2.027-5.118h-1.876l-1.078 3.802-1.092-3.813H7.345l2.156 5.132.003 5.973Z"/></symbol><symbol id="vk" viewBox="0 0 30 30"><g clip-path="url(#clip0_12_222)"><path d="M19.605 0h-9.21C1.99 0 0 1.99 0 10.395v9.21C0 28.01 1.99 30 10.395 30h9.21C28.01 30 30 28.01 30 19.605v-9.21C30 1.99 27.989 0 19.605 0Zm4.615 21.404h-2.18c-.825 0-1.08-.657-2.563-2.159-1.29-1.25-1.862-1.419-2.18-1.419-.445 0-.572.128-.572.741v1.97c0 .53-.169.847-1.566.847-2.308 0-4.87-1.398-6.669-4.003-2.71-3.81-3.453-6.668-3.453-7.261 0-.317.128-.614.742-.614h2.18c.55 0 .762.254.975.846 1.079 3.113 2.879 5.844 3.62 5.844.275 0 .402-.127.402-.825v-3.22c-.085-1.482-.868-1.608-.868-2.137 0-.255.212-.509.55-.509h3.43c.466 0 .634.254.634.804v4.341c0 .465.213.635.34.635.274 0 .508-.17 1.015-.678 1.568-1.757 2.69-4.467 2.69-4.467.148-.318.402-.614.953-.614h2.18c.656 0 .805.338.656.804-.275 1.271-2.942 5.039-2.942 5.039-.233.381-.318.55 0 .975.232.317.995.973 1.503 1.566.932 1.059 1.65 1.948 1.842 2.563.212.612-.107.93-.72.93h.001Z"/></g><defs><clipPath id="clip0_12_222"><path d="M0 0h30v30H0z"/></clipPath></defs></symbol><symbol id="facebook" viewBox="0 0 30 30"><g clip-path="url(#clip0_12_224)"><path d="M5.478 0A5.466 5.466 0 0 0 0 5.478v19.044A5.466 5.466 0 0 0 5.478 30H15.8V18.272h-3.102v-4.223H15.8v-3.607c0-2.834 1.832-5.437 6.053-5.437 1.71 0 2.973.164 2.973.164l-.1 3.944S23.439 9.1 22.032 9.1c-1.522 0-1.766.702-1.766 1.866v3.083h4.582l-.2 4.223h-4.382V30h4.257A5.466 5.466 0 0 0 30 24.522V5.478A5.466 5.466 0 0 0 24.522 0H5.478Z"/></g><defs><clipPath id="clip0_12_224"><path d="M0 0h30v30H0z"/></clipPath></defs></symbol><symbol id="twitter" viewBox="0 0 30 30"><g clip-path="url(#clip0_12_226)"><path d="M26.786 0H3.214A3.215 3.215 0 0 0 0 3.214v23.572A3.215 3.215 0 0 0 3.214 30h23.572A3.215 3.215 0 0 0 30 26.786V3.214A3.215 3.215 0 0 0 26.786 0ZM23.51 10.634c.014.187.014.382.014.57 0 5.805-4.42 12.495-12.496 12.495-2.491 0-4.801-.724-6.743-1.97.355.041.696.055 1.058.055a8.805 8.805 0 0 0 5.45-1.875 4.398 4.398 0 0 1-4.104-3.047c.676.1 1.285.1 1.982-.08a4.392 4.392 0 0 1-3.516-4.313v-.054a4.39 4.39 0 0 0 1.982.556 4.383 4.383 0 0 1-1.955-3.656c0-.817.214-1.567.596-2.217a12.47 12.47 0 0 0 9.054 4.594c-.623-2.98 1.607-5.397 4.285-5.397 1.266 0 2.404.529 3.208 1.386a8.605 8.605 0 0 0 2.786-1.058 4.38 4.38 0 0 1-1.929 2.417 8.74 8.74 0 0 0 2.531-.683 9.244 9.244 0 0 1-2.203 2.277Z"/></g><defs><clipPath id="clip0_12_226"><path d="M0 0h30v30H0z"/></clipPath></defs></symbol><symbol id="twitch" viewBox="0 0 30 30"><g clip-path="url(#clip0_12_228)"><path d="m1.991-.005-1.995 5.15v21.047h7.091v3.803h3.99l3.764-3.803h5.765l7.754-7.835V-.005H1.99Zm23.711 17.016-4.433 4.48h-7.091l-3.764 3.803v-3.803H4.43V2.68h21.272v14.33ZM21.27 7.83v7.828h-2.657V7.83h2.657Zm-7.091 0v7.828h-2.657V7.83h2.657Z"/></g><defs><clipPath id="clip0_12_228"><path d="M0 0h28.364v30H0z"/></clipPath></defs></symbol><symbol id="instagram" viewBox="0 0 30 30"><g clip-path="url(#clip0_12_230)"><path d="M15 11.428a3.573 3.573 0 1 0 .003 7.146A3.573 3.573 0 0 0 15 11.428Zm8.351-2.745a3.615 3.615 0 0 0-2.036-2.037c-1.407-.555-4.755-.43-6.315-.43-1.56 0-4.905-.13-6.315.43a3.616 3.616 0 0 0-2.037 2.037c-.554 1.406-.43 4.757-.43 6.316 0 1.56-.124 4.907.433 6.318a3.616 3.616 0 0 0 2.036 2.036c1.407.555 4.755.43 6.316.43 1.56 0 4.904.13 6.314-.43a3.616 3.616 0 0 0 2.037-2.036c.559-1.407.43-4.758.43-6.317 0-1.559.129-4.906-.43-6.317h-.003ZM15 20.49a5.492 5.492 0 1 1 0-10.983 5.492 5.492 0 0 1 0 10.983Zm5.717-9.93a1.282 1.282 0 1 1 1.186-.791 1.28 1.28 0 0 1-1.183.793l-.003-.003ZM26.786 0H3.214A3.214 3.214 0 0 0 0 3.214v23.572A3.214 3.214 0 0 0 3.214 30h23.572A3.214 3.214 0 0 0 30 26.786V3.214A3.214 3.214 0 0 0 26.786 0Zm-1.147 19.42c-.086 1.716-.478 3.237-1.73 4.486-1.254 1.25-2.773 1.65-4.487 1.731-1.769.1-7.071.1-8.84 0-1.716-.086-3.231-.479-4.486-1.73-1.255-1.253-1.65-2.774-1.731-4.487-.1-1.77-.1-7.073 0-8.84.086-1.716.473-3.237 1.73-4.486 1.258-1.25 2.778-1.645 4.487-1.727 1.769-.1 7.071-.1 8.84 0 1.716.087 3.236.48 4.486 1.731 1.25 1.253 1.65 2.774 1.731 4.49.1 1.763.1 7.061 0 8.832Z"/></g><defs><clipPath id="clip0_12_230"><path d="M0 0h30v30H0z"/></clipPath></defs></symbol></defs></svg>